<svg xmlns="http://www.w3.org/2000/svg" width="110" height="16" viewBox="0 0 110 16" fill="none">
  <g clip-path="url(#clip0_128_1174)">
    <path d="M0 0.750854H5.82336C7.38406 0.750854 8.61798 1.19956 9.39833 1.9604C9.98359 2.56517 10.2762 3.3065 10.2762 4.15025V4.18927C10.2762 5.96944 9.18374 6.88635 8.10588 7.35456C9.72998 7.82277 11.0371 8.79821 11.0371 10.6564V10.6954C11.0371 13.0414 9.06181 14.4265 6.07209 14.4265H0V0.750854ZM8.71553 4.36485C8.71553 3.01874 7.64255 2.13597 5.6868 2.13597H1.52656V6.84733H5.56974C7.44746 6.84733 8.71553 6.02797 8.71553 4.40387V4.36485ZM9.47637 10.5589C9.47637 9.07133 8.24732 8.21295 5.84287 8.21295H1.52656V13.0365H6.11599C8.2083 13.0365 9.47637 12.1391 9.47637 10.593V10.554V10.5589Z" fill="white"/>
    <path d="M19.9717 0.750854H29.8577V2.15548H21.5129V6.82783H28.975V8.23245H21.5129V13.017H29.9553V14.4216H19.9717V0.750854Z" fill="white"/>
    <path d="M38.9248 0.750854H40.4709V6.74979H42.6997L48.4012 0.750854H50.4154L44.0068 7.33505L50.7081 14.4265H48.6548L42.7534 8.13491H40.466V14.4265H38.9199V0.750854H38.9248Z" fill="white"/>
    <path d="M62.4527 2.17499H57.8438V0.750854H68.6077V2.17499H63.9988V14.4265H62.4576V2.17499H62.4527Z" fill="white"/>
    <path d="M99.7578 0.750854H104.879C107.966 0.750854 109.995 2.38959 109.995 5.08667V5.12569C109.995 8.07638 107.532 9.59807 104.62 9.59807H101.299V14.4216H99.7578V0.750854ZM104.679 8.19344C106.947 8.19344 108.429 6.98389 108.429 5.18421V5.1452C108.429 3.18945 106.966 2.17499 104.757 2.17499H101.299V8.19344H104.679Z" fill="white"/>
    <path d="M78.5813 3.8576C78.8544 3.8576 79.0934 3.76493 79.3129 3.63325L81.7515 6.07184C81.4296 6.49615 81.2345 7.01801 81.2345 7.59352C81.2345 8.99815 82.3709 10.1345 83.7755 10.1345C85.1802 10.1345 86.3165 8.99815 86.3165 7.59352C86.3165 6.18889 85.1802 5.05251 83.7755 5.05251C83.2049 5.05251 82.6782 5.24759 82.2538 5.56949L79.8152 3.1309C79.9469 2.91142 80.0396 2.67244 80.0396 2.39932C80.0396 1.59458 79.3861 0.94104 78.5813 0.94104C77.7766 0.94104 77.123 1.59458 77.123 2.39932C77.123 3.20405 77.7766 3.8576 78.5813 3.8576Z" fill="#921A1D"/>
    <path d="M83.7901 -0.000244141V1.50193C87.1407 1.51168 89.8622 4.23803 89.8622 7.58378C89.8622 10.9295 87.1309 13.6705 83.7754 13.6705C80.4199 13.6705 77.7277 10.9685 77.6985 7.63743H76.1914C76.2207 11.7977 79.6103 15.1727 83.7754 15.1727C87.9405 15.1727 91.3643 11.7684 91.3643 7.58378C91.3643 3.39915 87.9649 0.00951023 83.7901 -0.000244141Z" fill="#921A1D"/>
  </g>
  <defs>
    <clipPath id="clip0_128_1174">
      <rect width="110" height="15.1778" fill="white" transform="translate(0 -0.000244141)"/>
    </clipPath>
  </defs>
</svg>