<svg width="41" height="41" viewBox="0 0 41 41" fill="none" xmlns="http://www.w3.org/2000/svg">
<path d="M20.0628 39.5108C30.8656 39.5108 39.6255 30.7794 39.6255 20.0054C39.6255 9.23145 30.8656 0.5 20.0628 0.5C9.25997 0.5 0.5 9.23145 0.5 20.0054C0.5 30.7794 9.25997 39.5108 20.0628 39.5108Z" stroke="white"/>
<path d="M24.3354 30.0296C23.9689 30.0386 23.6362 29.9576 23.3282 29.8025C23.182 29.7283 23.0584 29.6069 22.9257 29.5057C22.2602 28.9976 21.597 28.4872 20.9337 27.9769C20.3896 27.5587 19.8455 27.1405 19.3015 26.7223C19.261 26.6908 19.2363 26.6863 19.1935 26.7268C18.5011 27.3608 17.8086 27.9926 17.1139 28.6221C16.9497 28.7705 16.7968 28.9347 16.5877 29.0336C16.2393 29.1977 15.884 29.2179 15.5243 29.101C15.214 28.9999 15.0117 28.7638 14.8521 28.4917C14.6609 28.168 14.553 27.8083 14.4429 27.4508C14.0359 26.1288 13.629 24.8045 13.2243 23.4803C13.1591 23.2689 13.0939 23.0576 13.0309 22.8462C13.0174 22.8013 12.9927 22.7788 12.95 22.7653C11.7696 22.3674 10.587 21.9716 9.40666 21.5714C9.13237 21.4793 8.85133 21.4073 8.59727 21.2634C8.24653 21.0656 7.94076 20.8183 7.75191 20.454C7.47761 19.9279 7.52708 19.3524 7.90704 18.8825C8.17908 18.5475 8.55005 18.3586 8.93901 18.1945C9.67196 17.8887 10.4049 17.5785 11.1379 17.2704C12.0507 16.886 12.9657 16.5038 13.8808 16.1193C14.7486 15.7551 15.6165 15.3864 16.4821 15.0199C17.5748 14.559 18.6674 14.1003 19.7579 13.6417C20.9495 13.1403 22.1411 12.6344 23.3349 12.1331C24.5423 11.6249 25.7518 11.1191 26.9592 10.6155C27.2402 10.4985 27.5258 10.4041 27.836 10.3974C28.4566 10.3839 28.9354 10.6334 29.248 11.1775C29.4278 11.4923 29.4728 11.8385 29.4368 12.196C29.3986 12.5962 29.2952 12.9829 29.2255 13.3786C29.149 13.7991 29.0613 14.2172 28.9782 14.6377C28.8792 15.1413 28.7803 15.6472 28.6814 16.1508C28.5937 16.5959 28.5105 17.0411 28.4228 17.4863C28.3306 17.9607 28.2362 18.4351 28.144 18.9095C28.0564 19.3546 27.9709 19.7998 27.8855 20.2427C27.7821 20.7755 27.6764 21.3061 27.573 21.8368C27.4853 22.2819 27.4021 22.7271 27.3144 23.17C27.2222 23.6421 27.1301 24.1143 27.0379 24.5864C26.9502 25.0338 26.8625 25.4813 26.7748 25.9287C26.6759 26.4323 26.5747 26.9359 26.478 27.4418C26.3971 27.8532 26.3207 28.2669 26.2375 28.6783C26.197 28.8807 26.0823 29.0516 25.9632 29.2179C25.6462 29.6676 25.2122 29.9307 24.6682 30.0138C24.5557 30.0318 24.4411 30.0431 24.3422 30.0341L24.3354 30.0296Z" fill="white"/>
<path d="M9.46026 19.8066C9.61314 19.7414 9.75254 19.6784 9.89418 19.6177C10.5192 19.3546 11.1465 19.0916 11.7715 18.8285C12.5382 18.507 13.3049 18.1855 14.0693 17.8618C14.7325 17.583 15.3958 17.3019 16.059 17.0232C16.8842 16.6747 17.707 16.3284 18.5322 15.9799C19.2359 15.6832 19.9396 15.3864 20.6456 15.0896C21.5134 14.7254 22.3813 14.3589 23.2491 13.9947C23.9798 13.6867 24.7083 13.3786 25.439 13.0706C26.0977 12.7941 26.7565 12.5198 27.4152 12.2455C27.4962 12.2118 27.5794 12.1781 27.6603 12.1443C27.739 12.1129 27.7457 12.1151 27.7322 12.2028C27.7098 12.3377 27.6828 12.4703 27.6558 12.6052C27.5569 13.1133 27.4602 13.6192 27.3613 14.1273C27.2713 14.5905 27.1792 15.0536 27.0892 15.519C26.988 16.0316 26.8914 16.5443 26.7902 17.0569C26.698 17.5223 26.6058 17.9899 26.5137 18.4553C26.4147 18.9634 26.3181 19.4693 26.2191 19.9774C26.1269 20.4473 26.0348 20.915 25.9426 21.3849C25.8437 21.893 25.747 22.3989 25.6481 22.907C25.5581 23.3724 25.4637 23.84 25.3738 24.3054C25.2681 24.8428 25.1647 25.3801 25.059 25.9174C24.9668 26.3873 24.8746 26.855 24.7825 27.3249C24.7285 27.5992 24.6745 27.8757 24.6228 28.1523C24.5959 28.2984 24.4542 28.3838 24.3058 28.3591C24.1147 28.3254 23.9888 28.1927 23.8449 28.0871C23.3413 27.7071 22.8422 27.3226 22.3431 26.9382C21.7832 26.5088 21.2234 26.0793 20.6636 25.6477C20.1779 25.2744 19.69 24.9012 19.2044 24.5257C19.1617 24.492 19.1347 24.4988 19.0987 24.5325C18.6199 24.9709 18.141 25.4093 17.6598 25.8478C17.2641 26.2075 16.8684 26.5672 16.4727 26.9269C16.3715 27.0191 16.2704 27.1113 16.1535 27.217C16.1692 27.1046 16.1804 27.0124 16.1939 26.9179C16.2479 26.5695 16.3041 26.2187 16.3581 25.8702C16.412 25.5352 16.466 25.2002 16.5177 24.863C16.5649 24.5572 16.6121 24.2515 16.6593 23.9457C16.6953 23.7119 16.7335 23.478 16.7717 23.2442C16.7762 23.2082 16.7897 23.1835 16.8167 23.1588C17.4575 22.5607 18.0982 21.9627 18.739 21.3646C19.3146 20.8273 19.8901 20.2922 20.4657 19.7548C21.129 19.1366 21.7922 18.5183 22.4577 17.8977C22.9501 17.4391 23.4425 16.9827 23.9326 16.524C24.2811 16.2003 24.6296 15.8743 24.9758 15.5483C25.014 15.5123 25.0433 15.4673 25.0792 15.4291C25.1647 15.3369 25.1377 15.2313 25.104 15.1323C25.0747 15.0514 24.9803 15.0267 24.8656 15.0491C24.67 15.0851 24.5149 15.1975 24.353 15.2987C22.8489 16.2317 21.3448 17.1648 19.8384 18.0978C18.703 18.8016 17.5654 19.5053 16.4278 20.209C15.7645 20.6204 15.099 21.0296 14.438 21.4433C14.3998 21.4681 14.3706 21.4658 14.3323 21.4546C12.8822 20.9667 11.4343 20.4788 9.98411 19.9909C9.81324 19.9325 9.64237 19.874 9.45801 19.8111L9.46026 19.8066Z" fill="#F7A83D"/>
</svg>
