<svg width="99" height="119" viewBox="0 0 99 119" fill="none" xmlns="http://www.w3.org/2000/svg">
<path d="M32.1592 15.2239V21.4328H10.6667V46.5075H25.6318V47.1443C25.6318 48.8425 25.1277 50.1957 24.1194 51.204C23.1111 52.2123 21.7579 52.7164 20.0597 52.7164H10.6667V84H4.37811V15.2239H32.1592Z" fill="#3B95C7"/>
<path d="M50.9652 15.2239C54.5738 15.2239 57.466 16.3118 59.6418 18.4876C61.8176 20.6633 62.9055 23.5556 62.9055 27.1642V72.0597C62.9055 75.6683 61.8176 78.5605 59.6418 80.7363C57.466 82.9121 54.5738 84 50.9652 84H32.7363V15.2239H50.9652ZM39.0249 21.5124V77.7114H51.0448C52.743 77.7114 54.0962 77.2073 55.1045 76.199C56.1128 75.1907 56.6169 73.8375 56.6169 72.1393V27.0846C56.6169 25.3864 56.1128 24.0332 55.1045 23.0249C54.0962 22.0166 52.743 21.5124 51.0448 21.5124H39.0249Z" fill="#3B95C7"/>
<path d="M82.3084 15.2239C85.9171 15.2239 88.8093 16.3118 90.9851 18.4876C93.1608 20.6633 94.2487 23.5556 94.2487 27.1642V72.0597C94.2487 75.6683 93.1608 78.5605 90.9851 80.7363C88.8093 82.9121 85.9171 84 82.3084 84H64.0796V15.2239H82.3084ZM70.3681 21.5124V77.7114H82.388C84.0862 77.7114 85.4395 77.2073 86.4477 76.199C87.456 75.1907 87.9602 73.8375 87.9602 72.1393V27.0846C87.9602 25.3864 87.456 24.0332 86.4477 23.0249C85.4395 22.0166 84.0862 21.5124 82.388 21.5124H70.3681Z" fill="#F14448"/>
<path d="M10.5075 88.1791V89.3433H6.4776V94.0448H9.28357V94.1642C9.28357 94.4826 9.18904 94.7363 8.99999 94.9254C8.81093 95.1144 8.5572 95.209 8.23879 95.209H6.4776V101.075H5.2985V88.1791H10.5075ZM14.8675 89.209C14.9272 88.9005 15.0715 88.6518 15.3004 88.4627C15.5292 88.2737 15.8028 88.1791 16.1213 88.1791H16.5392L19.1063 101.075H17.8526L17.2705 98.1045H14.3302L13.7481 101.075H12.5093L14.8675 89.209ZM17.0914 96.9254L15.8078 90.2687L14.5093 96.9254H17.0914ZM21.8762 97.9851H23.0105V98.9105C23.0105 99.2289 23.105 99.4826 23.2941 99.6717C23.4831 99.8607 23.7368 99.9552 24.0553 99.9552H25.1448C25.4632 99.9552 25.7169 99.8607 25.906 99.6717C26.0951 99.4826 26.1896 99.2289 26.1896 98.9105V96.5821C26.1896 96.2637 26.0951 95.995 25.906 95.7761C25.7169 95.5572 25.4682 95.4229 25.1597 95.3732L24.0851 95.194C23.7568 95.1343 23.4533 95.0299 23.1747 94.8806C22.906 94.7314 22.6722 94.5423 22.4732 94.3135C22.2841 94.0846 22.1349 93.8259 22.0254 93.5373C21.9259 93.2388 21.8762 92.9204 21.8762 92.5821V90.3433C21.8762 89.6667 22.0801 89.1244 22.4881 88.7164C22.8961 88.3085 23.4383 88.1045 24.115 88.1045H25.0851C25.7617 88.1045 26.304 88.3085 26.712 88.7164C27.1199 89.1244 27.3239 89.6667 27.3239 90.3433V92.1642L26.1896 91.5672V90.3433C26.1896 90.0249 26.0951 89.7712 25.906 89.5821C25.7169 89.3931 25.4632 89.2985 25.1448 89.2985H24.0553C23.7368 89.2985 23.4831 89.3931 23.2941 89.5821C23.105 89.7712 23.0105 90.0249 23.0105 90.3433V92.6717C23.0105 92.9901 23.105 93.2587 23.2941 93.4776C23.4831 93.6965 23.7319 93.8309 24.0403 93.8806L25.115 94.0597C25.4433 94.1194 25.7418 94.2239 26.0105 94.3732C26.2891 94.5224 26.5229 94.7115 26.712 94.9403C26.911 95.1692 27.0602 95.4329 27.1597 95.7314C27.2692 96.0199 27.3239 96.3334 27.3239 96.6717V98.9105C27.3239 99.5871 27.1199 100.129 26.712 100.537C26.304 100.945 25.7617 101.149 25.0851 101.149H24.115C23.4383 101.149 22.8961 100.945 22.4881 100.537C22.0801 100.129 21.8762 99.5871 21.8762 98.9105V97.9851ZM29.9137 89.3433V88.1791H35.8092V89.3433H33.451V101.075H32.2719V89.3433H29.9137ZM46.6187 88.1791C47.2953 88.1791 47.8376 88.3831 48.2456 88.7911C48.6535 89.199 48.8575 89.7413 48.8575 90.4179V98.8358C48.8575 99.5125 48.6535 100.055 48.2456 100.463C47.8376 100.871 47.2953 101.075 46.6187 101.075H43.2008V88.1791H46.6187ZM44.3799 89.3582V99.8955H46.6336C46.952 99.8955 47.2058 99.801 47.3948 99.612C47.5839 99.4229 47.6784 99.1692 47.6784 98.8508V90.403C47.6784 90.0846 47.5839 89.8309 47.3948 89.6418C47.2058 89.4528 46.952 89.3582 46.6336 89.3582H44.3799ZM52.0056 101.075V88.1791H53.1847V101.075H52.0056ZM56.4727 98.9105V90.3433C56.4727 89.6667 56.6767 89.1244 57.0846 88.7164C57.4926 88.3085 58.0349 88.1045 58.7115 88.1045H59.8906C60.5672 88.1045 61.1095 88.3085 61.5175 88.7164C61.9254 89.1244 62.1294 89.6667 62.1294 90.3433V92.0448L60.9503 91.4478V90.3284C60.9503 90.01 60.8558 89.7562 60.6667 89.5672C60.4777 89.3781 60.2239 89.2836 59.9055 89.2836H58.6966C58.3782 89.2836 58.1244 89.3781 57.9354 89.5672C57.7463 89.7562 57.6518 90.01 57.6518 90.3284V98.9254C57.6518 99.2438 57.7463 99.4975 57.9354 99.6866C58.1244 99.8756 58.3782 99.9702 58.6966 99.9702H59.9055C60.2239 99.9702 60.4777 99.8756 60.6667 99.6866C60.8558 99.4975 60.9503 99.2438 60.9503 98.9254V96.597H59.7861V95.4179H62.1294V98.9105C62.1294 99.5871 61.9254 100.129 61.5175 100.537C61.1095 100.945 60.5672 101.149 59.8906 101.149H58.7115C58.0349 101.149 57.4926 100.945 57.0846 100.537C56.6767 100.129 56.4727 99.5871 56.4727 98.9105ZM65.3475 101.075V88.1791H66.5266V101.075H65.3475ZM69.3622 89.3433V88.1791H75.2577V89.3433H72.8995V101.075H71.7204V89.3433H69.3622ZM78.9638 89.209C79.0235 88.9005 79.1678 88.6518 79.3967 88.4627C79.6255 88.2737 79.8992 88.1791 80.2176 88.1791H80.6355L83.2026 101.075H81.9489L81.3668 98.1045H78.4265L77.8444 101.075H76.6056L78.9638 89.209ZM81.1877 96.9254L79.9041 90.2687L78.6056 96.9254H81.1877ZM87.2215 88.1791V99.8955H89.9081C90.1768 99.8955 90.3907 99.9801 90.5499 100.149C90.719 100.308 90.8036 100.522 90.8036 100.791V101.075H86.0424V88.1791H87.2215Z" fill="#3B95C7"/>
<path d="M17.6716 101.612C18.3483 101.612 18.8905 101.816 19.2985 102.224C19.7065 102.632 19.9104 103.174 19.9104 103.851V112.269C19.9104 112.945 19.7065 113.488 19.2985 113.896C18.8905 114.303 18.3483 114.507 17.6716 114.507H14.2537V101.612H17.6716ZM15.4328 102.791V113.328H17.6866C18.005 113.328 18.2587 113.234 18.4478 113.045C18.6368 112.856 18.7313 112.602 18.7313 112.284V103.836C18.7313 103.517 18.6368 103.264 18.4478 103.075C18.2587 102.886 18.005 102.791 17.6866 102.791H15.4328ZM23.0585 101.612H28.2675V102.776H24.2376V107.478H27.0436V107.597C27.0436 107.915 26.9491 108.169 26.76 108.358C26.571 108.547 26.3172 108.642 25.9988 108.642H24.2376V113.343H28.2675V114.507H23.0585V101.612ZM31.3561 112.343V103.776C31.3561 103.1 31.5601 102.557 31.968 102.149C32.376 101.741 32.9183 101.537 33.5949 101.537H34.774C35.4506 101.537 35.9929 101.741 36.4009 102.149C36.8088 102.557 37.0128 103.1 37.0128 103.776V105.478L35.8337 104.881V103.761C35.8337 103.443 35.7392 103.189 35.5501 103C35.3611 102.811 35.1073 102.716 34.7889 102.716H33.58C33.2616 102.716 33.0078 102.811 32.8188 103C32.6297 103.189 32.5352 103.443 32.5352 103.761V112.358C32.5352 112.677 32.6297 112.93 32.8188 113.119C33.0078 113.308 33.2616 113.403 33.58 113.403H34.7889C35.1073 113.403 35.3611 113.308 35.5501 113.119C35.7392 112.93 35.8337 112.677 35.8337 112.358V111.224L37.0128 111.821V112.343C37.0128 113.02 36.8088 113.562 36.4009 113.97C35.9929 114.378 35.4506 114.582 34.774 114.582H33.5949C32.9183 114.582 32.376 114.378 31.968 113.97C31.5601 113.562 31.3561 113.02 31.3561 112.343ZM40.1609 114.507V101.612H41.34V114.507H40.1609ZM44.4006 111.418H45.535V112.343C45.535 112.662 45.6295 112.915 45.8186 113.104C46.0076 113.294 46.2613 113.388 46.5797 113.388H47.6693C47.9877 113.388 48.2414 113.294 48.4305 113.104C48.6196 112.915 48.7141 112.662 48.7141 112.343V110.015C48.7141 109.697 48.6196 109.428 48.4305 109.209C48.2414 108.99 47.9927 108.856 47.6842 108.806L46.6096 108.627C46.2812 108.567 45.9778 108.463 45.6992 108.313C45.4305 108.164 45.1967 107.975 44.9977 107.746C44.8086 107.517 44.6594 107.259 44.5499 106.97C44.4504 106.672 44.4006 106.353 44.4006 106.015V103.776C44.4006 103.1 44.6046 102.557 45.0126 102.149C45.4205 101.741 45.9628 101.537 46.6395 101.537H47.6096C48.2862 101.537 48.8285 101.741 49.2365 102.149C49.6444 102.557 49.8484 103.1 49.8484 103.776V105.597L48.7141 105V103.776C48.7141 103.458 48.6196 103.204 48.4305 103.015C48.2414 102.826 47.9877 102.731 47.6693 102.731H46.5797C46.2613 102.731 46.0076 102.826 45.8186 103.015C45.6295 103.204 45.535 103.458 45.535 103.776V106.104C45.535 106.423 45.6295 106.692 45.8186 106.91C46.0076 107.129 46.2564 107.264 46.5648 107.313L47.6395 107.493C47.9678 107.552 48.2663 107.657 48.535 107.806C48.8136 107.955 49.0474 108.144 49.2365 108.373C49.4355 108.602 49.5847 108.866 49.6842 109.164C49.7937 109.453 49.8484 109.766 49.8484 110.104V112.343C49.8484 113.02 49.6444 113.562 49.2365 113.97C48.8285 114.378 48.2862 114.582 47.6096 114.582H46.6395C45.9628 114.582 45.4205 114.378 45.0126 113.97C44.6046 113.562 44.4006 113.02 44.4006 112.343V111.418ZM53.2054 114.507V101.612H54.3846V114.507H53.2054ZM57.5979 103.776C57.5979 103.1 57.8019 102.557 58.2099 102.149C58.6178 101.741 59.1601 101.537 59.8367 101.537H61.1651C61.8417 101.537 62.384 101.741 62.792 102.149C63.1999 102.557 63.4039 103.1 63.4039 103.776V112.343C63.4039 113.02 63.1999 113.562 62.792 113.97C62.384 114.378 61.8417 114.582 61.1651 114.582H59.8367C59.1601 114.582 58.6178 114.378 58.2099 113.97C57.8019 113.562 57.5979 113.02 57.5979 112.343V103.776ZM59.8218 113.403H61.18C61.4984 113.403 61.7522 113.308 61.9412 113.119C62.1303 112.93 62.2248 112.677 62.2248 112.358V103.761C62.2248 103.443 62.1303 103.189 61.9412 103C61.7522 102.811 61.4984 102.716 61.18 102.716H59.8218C59.5034 102.716 59.2497 102.811 59.0606 103C58.8716 103.189 58.777 103.443 58.777 103.761V112.358C58.777 112.677 58.8716 112.93 59.0606 113.119C59.2497 113.308 59.5034 113.403 59.8218 113.403ZM66.4774 114.507V101.612H66.9102C67.1789 101.612 67.4226 101.687 67.6415 101.836C67.8605 101.985 68.0147 102.189 68.1042 102.448L71.4027 111.657V101.612H72.5818V114.507H72.149C71.8804 114.507 71.6366 114.433 71.4177 114.284C71.1988 114.134 71.0445 113.93 70.955 113.672L67.6565 104.463V114.507H66.4774ZM75.6495 111.418H76.7838V112.343C76.7838 112.662 76.8783 112.915 77.0674 113.104C77.2564 113.294 77.5102 113.388 77.8286 113.388H78.9181C79.2365 113.388 79.4903 113.294 79.6793 113.104C79.8684 112.915 79.9629 112.662 79.9629 112.343V110.015C79.9629 109.697 79.8684 109.428 79.6793 109.209C79.4903 108.99 79.2415 108.856 78.9331 108.806L77.8584 108.627C77.5301 108.567 77.2266 108.463 76.948 108.313C76.6793 108.164 76.4455 107.975 76.2465 107.746C76.0574 107.517 75.9082 107.259 75.7987 106.97C75.6992 106.672 75.6495 106.353 75.6495 106.015V103.776C75.6495 103.1 75.8535 102.557 76.2614 102.149C76.6694 101.741 77.2117 101.537 77.8883 101.537H78.8584C79.5351 101.537 80.0773 101.741 80.4853 102.149C80.8933 102.557 81.0972 103.1 81.0972 103.776V105.597L79.9629 105V103.776C79.9629 103.458 79.8684 103.204 79.6793 103.015C79.4903 102.826 79.2365 102.731 78.9181 102.731H77.8286C77.5102 102.731 77.2564 102.826 77.0674 103.015C76.8783 103.204 76.7838 103.458 76.7838 103.776V106.104C76.7838 106.423 76.8783 106.692 77.0674 106.91C77.2564 107.129 77.5052 107.264 77.8137 107.313L78.8883 107.493C79.2166 107.552 79.5151 107.657 79.7838 107.806C80.0624 107.955 80.2962 108.144 80.4853 108.373C80.6843 108.602 80.8336 108.866 80.9331 109.164C81.0425 109.453 81.0972 109.766 81.0972 110.104V112.343C81.0972 113.02 80.8933 113.562 80.4853 113.97C80.0773 114.378 79.5351 114.582 78.8584 114.582H77.8883C77.2117 114.582 76.6694 114.378 76.2614 113.97C75.8535 113.562 75.6495 113.02 75.6495 112.343V111.418Z" fill="#F14448"/>
</svg>
