<svg width="301" height="42" viewBox="0 0 301 42" fill="none" xmlns="http://www.w3.org/2000/svg">
<g clip-path="url(#clip0_128_1383)">
<path d="M0 2.05518H15.9348C20.2055 2.05518 23.5819 3.28298 25.7173 5.36492C27.3187 7.01979 28.1195 9.04835 28.1195 11.3572V11.4639C28.1195 16.3351 25.13 18.8441 22.1806 20.1253C26.6248 21.4065 30.2014 24.0757 30.2014 29.1604V29.2672C30.2014 35.6865 24.7964 39.4767 16.6155 39.4767H0V2.05518ZM23.8489 11.9444C23.8489 8.26095 20.9128 5.84537 15.5611 5.84537H4.17722V18.7374H15.2408C20.379 18.7374 23.8489 16.4953 23.8489 12.0511V11.9444ZM25.9308 28.8935C25.9308 24.823 22.5677 22.4742 15.9882 22.4742H4.17722V35.6731H16.7356C22.4609 35.6731 25.9308 33.2175 25.9308 28.9869V28.8801V28.8935Z" fill="#333333"/>
<path d="M54.6504 2.05518H81.7022V5.89875H58.8676V18.684H79.2866V22.5276H58.8676V35.6197H81.9691V39.4633H54.6504V2.05518Z" fill="#333333"/>
<path d="M106.512 2.05518H110.743V18.4704H116.842L132.443 2.05518H137.955L120.419 20.0719L138.756 39.4767H133.137L116.989 22.2606H110.73V39.4767H106.499V2.05518H106.512Z" fill="#333333"/>
<path d="M170.892 5.95213H158.28V2.05518H187.734V5.95213H175.123V39.4767H170.905V5.95213H170.892Z" fill="#333333"/>
<path d="M272.974 2.05518H286.987C295.435 2.05518 300.986 6.53935 300.986 13.9195V14.0263C300.986 22.1005 294.247 26.2644 286.279 26.2644H277.191V39.4633H272.974V2.05518ZM286.44 22.4208C292.645 22.4208 296.702 19.111 296.702 14.1865V14.0797C296.702 8.72805 292.699 5.95213 286.653 5.95213H277.191V22.4208H286.44Z" fill="#333333"/>
<path d="M215.026 10.5564C215.774 10.5564 216.428 10.3029 217.028 9.94254L223.701 16.6154C222.82 17.7765 222.287 19.2045 222.287 20.7793C222.287 24.6229 225.396 27.7324 229.24 27.7324C233.083 27.7324 236.193 24.6229 236.193 20.7793C236.193 16.9357 233.083 13.8261 229.24 13.8261C227.678 13.8261 226.237 14.36 225.076 15.2408L218.403 8.56792C218.763 7.96737 219.017 7.31342 219.017 6.56606C219.017 4.36401 217.229 2.57568 215.026 2.57568C212.824 2.57568 211.036 4.36401 211.036 6.56606C211.036 8.76811 212.824 10.5564 215.026 10.5564Z" fill="#A30236"/>
<path d="M229.28 -6.10352e-05V4.11043C238.449 4.13712 245.895 11.5974 245.895 20.7526C245.895 29.9078 238.422 37.4081 229.24 37.4081C220.058 37.4081 212.691 30.0145 212.611 20.8994H208.487C208.567 32.2833 217.843 41.5186 229.24 41.5186C240.637 41.5186 250.006 32.2032 250.006 20.7526C250.006 9.30193 240.704 0.0266305 229.28 -6.10352e-05Z" fill="#A30236"/>
</g>
<defs>
<clipPath id="clip0_128_1383">
<rect width="301" height="41.532" fill="white"/>
</clipPath>
</defs>
</svg>
