<svg width="92" height="92" viewBox="0 0 92 92" fill="none" xmlns="http://www.w3.org/2000/svg">
<path d="M14.4906 23.3919C16.1466 23.3919 17.5957 22.83 18.9264 22.0315L33.7127 36.8178C31.7609 39.3906 30.578 42.5549 30.578 46.0444C30.578 54.5613 37.4684 61.4517 45.9853 61.4517C54.5022 61.4517 61.3926 54.5613 61.3926 46.0444C61.3926 37.5275 54.5022 30.6371 45.9853 30.6371C42.5253 30.6371 39.3315 31.82 36.7587 33.7718L21.9724 18.9856C22.7709 17.6548 23.3328 16.2058 23.3328 14.5497C23.3328 9.67024 19.37 5.70752 14.4906 5.70752C9.61111 5.70752 5.64842 9.67024 5.64842 14.5497C5.64842 19.4292 9.61111 23.3919 14.4906 23.3919Z" fill="#A30236"/>
<path d="M46.074 0V9.10833C66.3903 9.16748 82.8917 25.6985 82.8917 45.9852C82.8917 66.272 66.3311 82.8917 45.9853 82.8917C25.6394 82.8917 9.31533 66.5086 9.13789 46.3105H0C0.177435 71.5359 20.7303 92.0001 45.9853 92.0001C71.2402 92.0001 92.0001 71.3585 92.0001 45.9852C92.0001 20.612 71.388 0.059145 46.074 0Z" fill="#A30236"/>
</svg>
