<svg width="41" height="41" viewBox="0 0 41 41" fill="none" xmlns="http://www.w3.org/2000/svg">
<path d="M20.0628 39.5108C30.8656 39.5108 39.6255 30.7794 39.6255 20.0054C39.6255 9.23145 30.8656 0.5 20.0628 0.5C9.25997 0.5 0.5 9.23145 0.5 20.0054C0.5 30.7794 9.25997 39.5108 20.0628 39.5108Z" stroke="white"/>
<path d="M27.1857 21.1327C27.1857 21.1327 30.278 16.5753 30.5895 15.1344C30.6908 14.6176 30.4649 14.1634 29.9353 14.1634H27.248C26.6326 14.1634 26.4068 14.6019 26.2198 14.9935C26.2198 14.9935 24.771 18.1884 23.0029 20.1461C22.4343 20.7804 22.2941 21.0153 21.9747 21.0153C21.7255 21.0153 21.7488 20.843 21.7488 20.2714V15.2597C21.7488 14.5549 21.3827 14.1556 20.8063 14.1556H16.4989C16.1718 14.1556 16.016 14.4453 16.016 14.7037C16.016 15.3615 17.0753 15.6121 17.0753 17.3975V21.0858C17.0753 21.8297 16.9819 22.1194 16.6314 22.1194C15.7122 22.1194 13.4923 18.8305 12.2616 15.1971C12.0124 14.4531 11.7242 14.1556 11.0231 14.1556H8.34367C7.95421 14.1556 7.66602 14.5236 7.66602 14.9152C7.66602 15.6356 8.50725 19.0263 11.8099 23.4976C14.022 26.5046 17.0364 28.1569 19.6613 28.1569C21.2581 28.1569 21.7488 27.9141 21.7488 27.2329V24.9228C21.7488 24.3433 21.8735 24.1006 22.2006 24.1006C22.5667 24.1006 23.1665 24.2572 24.6931 25.7607C26.5002 27.4913 26.5703 28.2509 27.5518 28.2509H30.5662C30.8777 28.2509 31.1582 28.0708 31.1582 27.5539C31.1582 26.8727 30.278 25.6432 28.9227 24.1946C28.3696 23.4506 27.4661 22.6362 27.1779 22.2682C26.7651 21.8375 26.8897 21.5791 27.1779 21.1249L27.1857 21.1327Z" fill="white"/>
</svg>
